<svg clip-rule="evenodd" fill-rule="evenodd" stroke-linejoin="round" stroke-miterlimit="1.41421" viewBox="0 0 45 30" xmlns="http://www.w3.org/2000/svg"><g fill-rule="nonzero"><path d="m38.824 25.512c-.375-1.8-2.1-3.075-3.9-2.925-1.95.15-3.375 1.575-3.525 3.525-.15 1.875 1.05 3.375 3.15 3.975h1.35c.45-.15.9-.3 1.275-.6.45-.3.825-.675 1.125-1.05.3-.45.525-.975.6-1.425s0-.975-.075-1.5zm-3.675 2.625c-.9 0-1.65-.75-1.65-1.65 0-.975.75-1.725 1.65-1.725.975 0 1.65.75 1.65 1.65.075.975-.675 1.725-1.65 1.725z"/><path d="m14.074 25.512c-.375-1.8-2.1-3.075-3.9-2.925-1.95.15-3.375 1.575-3.525 3.525-.15 1.875 1.05 3.375 3.15 3.975h1.35c.375-.15.9-.3 1.275-.6.45-.3.825-.675 1.125-1.05.3-.45.525-.975.6-1.425s.075-.975-.075-1.5zm-3.6 2.625c-.9 0-1.65-.75-1.65-1.65 0-.975.75-1.725 1.65-1.725.975 0 1.65.75 1.65 1.65 0 .975-.75 1.725-1.65 1.725z"/><path d="m44.749 19.737c-.225-.225-.375-.525-.375-.825-.075-2.1-1.35-3.825-2.55-5.4-1.05-1.425-2.175-3-4.05-3.3-3.75-.525-7.425-.75-11.175-.6v1.725c.375 0 .825-.075 1.2-.075 0 0 1.2-.225 1.125.825l-.45 4.2s-.15.825-.825.9l-1.05.075v1.425h1.35c.525 0 .9.375.9.9 0 .45-.45.825-.9.825h-1.35v7.2h3.15c-.375-1.95.075-3.675 1.5-5.1 1.125-1.125 2.55-1.65 4.2-1.575 2.7.075 5.775 2.7 5.1 6.675h3.45l.15-.075c2.025-1.35 1.95-6.075.6-7.8zm-5.175-2.7-8.775.15s-.75 0-.675-.675l.375-4.5s.225-.75.975-.525c0 0 3.3.675 4.875 1.275 0 0 2.775 1.125 3.9 2.85 0 0 .375.525.45.6 0 .225.3.825-1.125.825zm-29.7-1.5c-2.25.45-4.5 1.125-6.525 2.475-.45.3-.825.6-1.2.9-.9.825-1.5 1.725-1.8 2.7h1.275v.525c0 .525-.45.9-1.05.9h-.525c-.075.75-.075 1.5.075 2.325.225 1.65 1.275 2.175 2.475 2.25h2.625c-.75-3.975 2.55-6.75 5.55-6.675 2.925.075 6 2.85 5.25 6.675h3.075v-10.05l-6 .225s-.675-.075.225-.9c0 0 1.5-2.1 5.775-3.9v-2.25c-3 .9-5.775 2.325-8.4 4.35-.15.225-.525.375-.825.45z"/><path d="m29.749.312c-1.65-.675-3.075-.225-4.35 1.05-.825.825-1.65 1.65-2.55 2.625-.975-1.05-1.875-1.95-2.775-2.85-1.2-1.125-2.625-1.425-4.2-.825-1.5.6-2.325 1.8-2.4 3.45-.075 1.5.975 3.675 2.7 3.825 1.425.15 2.925 0 4.425 0v20.025h4.5v-20.025h2.1c1.275 0 2.4.225 3.45-.6 1.05-.75 1.5-1.95 1.5-3.15 0-1.725-.825-2.925-2.4-3.525zm-8.85 5.025c-.075.225-.45.45-.675.45-.525.075-.975 0-1.5 0h-1.35c-.9 0-1.65-.6-1.875-1.425s.15-1.65.825-2.1 1.65-.45 2.325.15c.75.675 1.425 1.35 2.1 2.1.15.225.225.6.15.825zm9.3-.9c-.225.825-.9 1.35-1.8 1.425h-1.425c-.45 0-.975.075-1.425 0-.3-.075-.675-.225-.75-.45s0-.675.225-.9c.675-.75 1.35-1.425 2.1-2.1.675-.6 1.575-.6 2.325-.15.675.525.975 1.35.75 2.175z"/></g></svg>